<?xml version="1.0" encoding="utf-8"?>
<!-- Generator: Adobe Illustrator 26.1.0, SVG Export Plug-In . SVG Version: 6.00 Build 0)  -->
<svg version="1.1" id="Layer_1" xmlns="http://www.w3.org/2000/svg" xmlns:xlink="http://www.w3.org/1999/xlink" x="0px" y="0px"
	 viewBox="0 0 234 50" style="enable-background:new 0 0 234 50;" xml:space="preserve">
<style type="text/css">
	.st0{fill:#020303;}
</style>
<g id="Layer_2_00000050655884890343996440000015521990507979499423_">
	<g>
		<path class="st0" d="M146.81,41.07c-3.73,0-7.19-1.29-9.93-3.45c-2.6,2.05-5.85,3.32-9.4,3.44c-3.94,0.13-7.6-1.17-10.48-3.44
			c-2.6,2.05-5.85,3.32-9.4,3.44c-3.94,0.13-7.6-1.17-10.48-3.44c-2.6,2.05-5.85,3.32-9.4,3.44c-8.86,0.3-16.31-6.67-16.61-15.53
			c-0.3-8.86,6.67-16.31,15.53-16.61l0.06,0l1.02,0c3.53,0.12,6.78,1.4,9.38,3.45c2.6-2.06,5.86-3.33,9.42-3.45l0.06,0l1.02,0
			c3.53,0.12,6.78,1.4,9.38,3.45c2.6-2.06,5.86-3.33,9.42-3.45l0.06,0l1.02,0c3.53,0.12,6.78,1.4,9.38,3.45
			c2.6-2.06,5.86-3.33,9.42-3.45l0.06,0l1.02,0c8.41,0.3,15.23,7.12,15.53,15.53c0.3,8.86-6.67,16.31-15.53,16.61
			C147.17,41.07,146.99,41.07,146.81,41.07z M139.52,34.99c2.16,1.58,4.82,2.47,7.71,2.38c6.82-0.23,12.19-5.97,11.96-12.78
			c-0.23-6.46-5.47-11.71-11.93-11.96h-0.89c-2.57,0.09-4.93,0.97-6.87,2.39c2.08,2.61,3.38,5.89,3.5,9.44
			C143.14,28.42,141.82,32.1,139.52,34.99z M119.65,34.99c2.16,1.58,4.83,2.47,7.71,2.38c2.57-0.09,4.94-0.96,6.88-2.38
			c-2.08-2.61-3.36-5.88-3.48-9.46c-0.13-3.96,1.18-7.64,3.47-10.52c-1.93-1.42-4.29-2.29-6.84-2.39h-0.89
			c-2.57,0.09-4.93,0.97-6.87,2.39c2.08,2.61,3.38,5.89,3.5,9.44C123.26,28.42,121.94,32.1,119.65,34.99z M99.77,34.99
			c2.16,1.58,4.84,2.47,7.71,2.38c2.57-0.09,4.94-0.96,6.88-2.38c-2.08-2.61-3.36-5.88-3.48-9.46c-0.13-3.96,1.19-7.64,3.47-10.52
			c-1.94-1.42-4.29-2.29-6.84-2.39h-0.89c-2.57,0.09-4.93,0.97-6.87,2.39c2.08,2.61,3.38,5.89,3.5,9.44
			C103.39,28.42,102.07,32.1,99.77,34.99z M86.74,12.63c-6.81,0.25-12.16,5.97-11.93,12.78c0.23,6.82,5.98,12.18,12.78,11.96
			c2.57-0.09,4.94-0.96,6.88-2.38c-2.08-2.61-3.36-5.88-3.48-9.46c-0.13-3.96,1.18-7.64,3.47-10.52c-1.94-1.42-4.29-2.29-6.84-2.39
			H86.74z M136.86,17.64c-1.61,2.17-2.52,4.87-2.42,7.77c0.09,2.61,0.98,5,2.43,6.96c1.61-2.17,2.53-4.88,2.43-7.78
			C139.22,21.99,138.32,19.6,136.86,17.64z M97.11,17.64c-1.61,2.17-2.52,4.87-2.42,7.77c0.09,2.61,0.98,5,2.43,6.96
			c1.61-2.17,2.53-4.88,2.43-7.78C99.47,21.99,98.57,19.6,97.11,17.64z M116.99,17.64c-1.61,2.17-2.52,4.87-2.42,7.77
			c0.09,2.61,0.98,5,2.43,6.96c1.61-2.17,2.53-4.88,2.43-7.78C119.34,21.99,118.44,19.6,116.99,17.64z"/>
	</g>
</g>
</svg>
