<?xml version="1.0" encoding="utf-8"?>
<!-- Generator: Adobe Illustrator 26.1.0, SVG Export Plug-In . SVG Version: 6.00 Build 0)  -->
<svg version="1.1" id="Layer_1" xmlns="http://www.w3.org/2000/svg" xmlns:xlink="http://www.w3.org/1999/xlink" x="0px" y="0px"
	 viewBox="0 0 234 50" style="enable-background:new 0 0 234 50;" xml:space="preserve">
<style type="text/css">
	.st0{fill:#231F20;}
</style>
<g id="layer1_00000005227628692021536400000005886740730934356871_" transform="translate(2.9476594e-5,-4.0385895e-5)">
	<path id="path2556_00000032620455049823169120000004719077011207101885_" class="st0" d="M72.61,6.72c-3.8-0.06-7.43,1.9-7.43,1.9
		s-3.63,2.2-4.99,5.53c-0.06,0.3-7.25,14.32-7.25,14.32c-9.15-2.62-13.55,2.73-13.43,4.75c2.2,5.53,13.02,1.6,14.09,0.3
		c0.59-0.3,1.01,0.06,1.01,0.06s2.62,1.78,2.97,1.9c0.3,0.12,1.78-0.06,1.78-0.06c1.19-0.06,3.27-2.38,3.51-2.38
		c0.42,0,0.83,2.56,2.5,2.5c1.9,0.36,4.04-1.78,4.04-1.78c0.3-0.42,0.36-0.12,0.36-0.12c-0.06,2.38,1.9,1.96,2.5,1.9
		c1.9-0.77,6.6-5.35,6.06-4.04c-0.18,0.36-1.6,3.03-1.6,3.03c-0.18,0.71,0.36,0.65,0.36,0.65l3.33-0.06
		c0.59-0.36,3.51-6.66,3.15-5.76c1.07-1.9,3.45-2.62,3.45-2.62c0.24-0.06,0.12,0.24,0.12,0.24l-3.98,7.85
		c-0.06,0.18,0.3,0.42,0.3,0.42l3.45-0.06c0.48-0.06,3.33-5.94,3.33-5.94c0.77-1.49,3.57-2.32,3.57-2.32
		c0.48-0.12,0.18,0.42,0.18,0.42l-2.67,5.65c-0.42,2.56,1.72,2.73,2.67,2.62c0.89-0.12,2.44-0.65,5.35-2.85
		c0.59-0.48,0.71,0,0.71,0.12c0,3.15,3.51,2.79,3.51,2.79c1.01,0.24,5.23,0.18,8.74-6.83c-1.31,4.75,1.31,6.06,1.43,6.18
		c0.12,0.18,1.49,0.65,2.02,0.53c5.35,0.48,7.61-7.85,7.61-7.85c1.19-0.89,1.49-1.19,2.02-1.43c1.19,0.12,1.49,0.18,2.08,0.24
		c0.48,0.18,0.06,0.59-0.12,0.71c-5.47,4.28-3.09,7.55-2.85,7.49c2.38,3.27,7.37-2.44,8.32-2.5c1.19,4.75,4.81,2.67,4.99,2.73
		c-0.3,0.95-1.25,3.27-2.08,4.75c-1.66,2.38-4.28-0.3-4.28-0.3l-0.65-0.06c-0.3,0.42-0.12,0.89-0.12,0.89
		c0.71,1.13,1.55,2.62,4.28,3.03c2.73,0.12,4.34-2.91,4.34-2.91s3.86-7.13,4.1-7.96c1.19-1.07,3.21-2.56,4.7-3.68
		c1.01-0.18-2.5,5.41-2.73,6.24c-0.06,0.48,0.12,0.48,0.12,0.48s2.62,0.12,3.15,0.06c0.48-0.06,2.97-5.88,3.8-7.01
		c0.77-1.25,3.21-2.44,3.21-2.44c0.53-0.12,0.36,0.53,0.36,0.53l-3.21,6.54c-0.77,2.73,1.43,2.73,1.78,2.73
		c1.07-0.06,4.99-2.32,4.99-2.32c0.53-0.42,0.53,0.24,0.53,0.24c-0.06,0.89,0.89,2.32,1.66,2.14c2.79,0.24,7.01-4.4,7.13-3.98
		c0,0.12-1.6,3.27-1.6,3.27c0.06,0.24,0.36,0.36,0.36,0.36s2.73,0.06,3.33,0.06c0.65,0,3.57-7.01,4.22-7.37
		c1.31-1.37,2.73-1.49,2.79-1.43c0.48,0-2.73,5.11-2.91,6.12c-0.71,2.97,1.37,2.91,1.37,2.91c1.66,0.24,5.76-2.67,5.88-2.38
		c0.48-0.48,0.53,0.12,0.53,0.12v0.24c0.3,2.38,1.66,2.14,1.66,2.14c1.6,0.42,7.9-4.81,7.9-4.81l-0.95-1.07l-3.92,2.85
		c-0.3,0.18-0.53-0.18-0.53-0.18l4.4-8.5c0.18-0.18-0.12-0.42-0.12-0.42h-3.98c-0.3,0.3-0.42,0.53-0.42,0.53l-3.57,6.95l-3.92,1.9
		c-0.42,0.12-0.3-0.3-0.3-0.3s3.27-6.42,3.57-7.31c0.18-0.42,0.12-1.07,0.12-1.07c-1.07-2.5-5.47,0.71-6.06,0.77l0.53-1.13
		c0.18-0.36-0.18-0.36-0.18-0.36l-3.68-0.06c0,0,0-0.24-0.12-0.06c-0.12,0.24-2.5,4.64-2.5,4.64l-5.94,4.46
		c-0.48,0.12-0.36-0.24-0.36-0.24l4.34-8.38l0.06-0.36l-4.16-0.12l-3.45,6.66c-0.18,0.18-3.8,2.26-3.8,2.26
		c-0.53,0.18-0.59-0.3-0.59-0.3l3.21-6.18c0.71-2.44-1.9-3.15-3.21-2.67c-0.89,0.3-1.72,0.59-1.72,0.59s-0.24,0.06-0.06-0.24
		c0.42-0.53,4.46-8.56,4.46-8.56c0.12-0.24-0.12-0.36-0.12-0.36l-3.68-0.06c-0.3,0.12-0.36,0.36-0.36,0.36l-5.23,9.93l-4.28,3.21
		c-0.3,0.18-0.3-0.12-0.3-0.12l2.14-4.1v-0.42l-3.86-0.06l-0.65,0.53c-0.42-0.89-2.67-0.89-2.73-0.89
		c-4.64-0.18-7.25,6.42-7.25,6.42c-2.56,2.26-3.74,2.91-4.64,3.09c-0.71,0.06-0.89-0.53-0.89-0.53c-1.01-3.03,5.17-5.88,5.17-5.88
		c0.18-0.12,1.07-2.79,1.01-2.79c-0.12,0-7.61,0-7.67-0.06c-0.42-0.18-2.44,1.72-3.03,2.14c-1.72-5.11-8.5-1.25-9.45,1.07
		c-0.42,0.12-0.59,0.06-0.77,0.06c0.06-1.72-0.18-2.85-1.25-3.39c-0.59-0.3-3.03,0-3.03,0l4.16-8.26c0.18-0.24-0.18-0.53-0.18-0.53
		h-3.74c-0.18,0.12-0.36,0.3-0.36,0.3s-7.07,13.67-7.49,14.38c-0.42,0.71-5.59,3.51-5.59,3.51c0.06-0.48,3.39-6.3,3.51-7.43
		c0.12-2.91-3.21-2.02-3.21-2.02s-1.9,1.25-3.63,2.14c-0.36-3.21-3.15-2.08-3.15-2.08l-3.15,2.08l0.59-1.49l0.12-0.59l-3.92-0.24
		c-0.42,0.3-1.19,2.08-1.19,2.08l-1.19,2.2l-5.41,4.04c-0.53,0.3-0.24-0.42-0.24-0.42s3.63-7.19,3.74-7.19
		c0.3-0.18,0.06-0.65,0.06-0.65l-3.68-0.06c0,0-0.59,1.07-0.77,1.19c-1.72-2.44-7.49-1.49-10.58,5.82
		c-0.42,0.48-0.71,0.83-0.89,0.89c-3.63,4.22-5.71,0.06-5.71,0.06l6.48-12.36c0,0,2.97-6.6,4.81-8.5c4.64-3.15,6-0.18,6-0.18
		c0.42,0.95,1.66,4.34-4.75,6c-0.83,0.06-0.59,0.48-0.59,0.48c1.84,1.6,4.16,1.43,4.16,1.43c2.26,0.42,8.32-2.91,6.12-8.32
		C77.31,7.5,74.93,6.72,72.61,6.72z M169.19,15.1c-3.33,0.12-3.57,4.64-0.12,5.11C172.4,20.33,172.99,15.28,169.19,15.1z
		 M192.01,15.1c-3.63,0-3.33,5.11,0.06,5.11C195.46,19.92,195.16,15.22,192.01,15.1z M72.26,24.67c1.07,0,0.89,1.31,0.71,1.55
		c0.12,0.42-1.84,3.74-1.84,3.74c-2.32,2.85-3.39,2.32-3.39,2.32s-0.77-0.12-0.18-1.66c0.65-1.07,1.9-3.86,3.21-5.53
		C71.36,24.79,71.9,24.67,72.26,24.67z M108.21,25.03c1.13,0.12,0.59,1.19,0.59,1.19l-3.09,6.06c-1.01,1.19-1.9,0.77-1.9,0.77
		c-0.48-0.36,0.36-1.78,0.36-1.78l2.91-5.71C107.62,25.03,108.21,25.03,108.21,25.03z M140.48,25.03c0.89-0.18,1.25,0.59,1.25,0.59
		s0.06,0.12-0.06,0.77c-0.24,1.01-2.97,5.71-2.97,5.71c-1.13,1.13-2.14,0.89-2.14,0.89c-0.59-0.18-0.36-1.01-0.36-1.01
		s2.2-4.52,3.27-6.42C139.89,25.27,140.19,25.09,140.48,25.03z M119.38,25.09c0.48-0.06,0.95,0.12,0.83,1.13
		c-0.59,1.19-2.85,5.71-3.27,6.3c-0.12,0.53-2.38,1.37-1.78-0.53c0,0,3.21-6.06,3.27-6.36C118.43,25.5,118.91,25.15,119.38,25.09z
		 M46.52,30.02c1.9-0.06,3.63,0.59,3.63,0.59s-0.42,1.49-4.64,2.14c-1.96-0.12-3.03-0.12-3.03-0.83
		C43.43,30.5,45.04,30.08,46.52,30.02z"/>
</g>
</svg>
