<?xml version="1.0" encoding="utf-8"?>
<!-- Generator: Adobe Illustrator 26.1.0, SVG Export Plug-In . SVG Version: 6.00 Build 0)  -->
<svg version="1.1" id="Layer_1" xmlns="http://www.w3.org/2000/svg" xmlns:xlink="http://www.w3.org/1999/xlink" x="0px" y="0px"
	 viewBox="0 0 234 50" style="enable-background:new 0 0 234 50;" xml:space="preserve">
<style type="text/css">
	.st0{fill:#141924;}
</style>
<g>
	<g>
		<g id="g6803_00000046339033741779284210000005144939301018537628_">
			<path id="path6821_00000183219211738741248510000008627465837750698680_" class="st0" d="M144.51,26.27h7.27v1.65h-7.27V26.27z"
				/>
			<g id="g6823_00000102526376534722698080000000433895565999431333_" transform="translate(371.6699,155.3428)">
				<path id="path6825_00000023279569006722314280000001886173923154143393_" class="st0" d="M-347.36-139.23l-0.67,16.78v0.3
					c0,1.42,0.45,1.72,2.7,1.87v0.75c-1.65-0.15-2.32-0.15-3.22-0.15c-0.9,0-1.57,0-3.22,0.15v-0.75c2.25-0.15,2.62-0.45,2.62-2.17
					l0.67-15.88v-0.22c0-1.5-0.45-1.8-2.7-1.95v-0.82c1.27,0.07,1.72,0.15,2.62,0.15c1.2,0,1.87,0,3.07-0.15l5.99,16.41l6.14-16.41
					c1.42,0.15,2.17,0.15,3.07,0.15c0.82,0,1.35,0,2.55-0.15v0.82c-2.17,0.15-2.7,0.45-2.7,1.87v0.22l0.37,15.88
					c0,1.72,0.3,2.02,2.62,2.17v0.75c-2.02-0.22-2.85-0.22-4.05-0.22s-2.02,0.07-4.05,0.22v-0.75c2.17-0.15,2.7-0.45,2.7-2.02v-0.15
					l-0.3-16.78l-5.32,14.46l-0.37,1.05l-0.45,1.2l-0.45,1.2l-0.37,1.05h-0.45l-0.37-1.05l-0.45-1.27l-0.45-1.27l-0.37-1.12
					L-347.36-139.23z"/>
			</g>
			<g id="g6827_00000093179461994555613580000015440470907297627829_" transform="translate(467.4092,114.1621)">
				<path id="path6829_00000147911103893641528080000001039617736327858602_" class="st0" d="M-418.79-87.62
					c0.3-3.75,1.57-5.62,3.6-5.62c2.1,0,3.15,1.8,3.37,5.62H-418.79z M-414.6-79.16c-2.92,0-4.27-2.25-4.27-7.34h9.67
					c-0.07-5.02-2.1-7.64-5.92-7.64c-3.9,0-6.29,3.15-6.29,8.09s2.4,7.87,6.59,7.87c3.15,0,5.24-1.95,5.69-5.32h-1.27
					C-410.85-80.65-412.28-79.16-414.6-79.16"/>
			</g>
			<g id="g6831_00000078021433109383109060000012675339139814721212_" transform="translate(512.7388,134.9434)">
				<path id="path6833_00000165915885893330283710000008970891172053976463_" class="st0" d="M-452.64-113.66v-0.6
					c1.87-0.15,2.92-0.37,4.27-0.75c0.15,1.2,0.22,1.72,0.3,2.7v0.37c0.67-1.87,2.1-2.92,3.82-2.92c1.65,0,2.85,1.05,2.85,2.62
					c0,0.97-0.52,1.57-1.35,1.57c-0.75,0-1.35-0.45-1.35-1.12c0-0.07,0-0.22,0.07-0.3l0.07-0.3v-0.3c0-0.45-0.37-0.75-0.97-0.75
					c-1.65,0-2.77,2.02-2.77,5.24v6.74c0,1.42,0.3,1.65,2.32,1.72v0.67c-1.8-0.15-2.47-0.22-3.6-0.22c-1.2,0-1.87,0-3.6,0.22v-0.67
					c1.95-0.07,2.32-0.37,2.32-1.72v-10.04v-0.52c0-1.42-0.22-1.57-1.87-1.57h-0.52V-113.66z"/>
			</g>
			<g id="g6835_00000152227119630827642430000003974114795298259356_" transform="translate(605.4961,140.8071)">
				<path id="path6837_00000137094778801251925460000015183545219328638113_" class="st0" d="M-521.83-121.05v5.32h-0.75
					c-0.6-2.85-1.8-4.2-3.75-4.2c-2.4,0-3.82,2.62-3.82,7.27c0,4.5,1.27,6.82,3.75,6.82c2.02,0,3.22-1.42,3.6-4.27h1.35
					c-0.45,3.45-2.25,5.32-5.17,5.32c-3.75,0-6.29-3.15-6.29-7.87c0-4.8,2.62-8.09,6.44-8.09c1.42,0,2.25,0.37,3.3,1.35l0.9-1.65
					H-521.83z"/>
			</g>
			<g id="g6839_00000176738215941528177240000000480305942918398876_" transform="translate(626.4326,114.1621)">
				<path id="path6841_00000174582488191967698900000011429949008913987745_" class="st0" d="M-537.49-87.62
					c0.3-3.75,1.57-5.62,3.6-5.62c2.1,0,3.15,1.8,3.37,5.62H-537.49z M-533.29-79.16c-2.92,0-4.27-2.25-4.27-7.34h9.67
					c-0.07-5.02-2.1-7.64-5.92-7.64c-3.9,0-6.29,3.15-6.29,8.09s2.4,7.87,6.59,7.87c3.15,0,5.24-1.95,5.69-5.32h-1.27
					C-529.55-80.65-530.97-79.16-533.29-79.16"/>
			</g>
			<g id="g6843_00000010271214991418943660000014575468007483571348_" transform="translate(699.4805,79.9941)">
				<path id="path6845_00000127034192135956393530000010156050147117760428_" class="st0" d="M-592-44.74c-2.32,0-3.6-2.4-3.6-7.04
					c0-4.72,1.12-6.97,3.45-6.97c2.4,0,3.6,2.47,3.6,7.19C-588.47-47.14-589.67-44.74-592-44.74 M-585.93-47.51v-18.66
					c-1.65,0.45-3.07,0.67-4.87,0.9v0.52c2.02,0,2.32,0.22,2.32,1.87v5.69c-1.2-1.95-2.17-2.55-3.9-2.55c-3.45,0-5.92,3.3-5.92,7.94
					s2.47,7.94,5.99,7.94c1.87,0,3.07-0.82,4.05-2.62c0.15,1.2,0.15,1.35,0.45,2.62c1.35-0.45,1.87-0.52,3.82-0.75l0.45-0.07v-0.52
					C-585.7-45.41-585.93-45.56-585.93-47.51"/>
			</g>
			<g id="g6847_00000127767092385318096780000011947616005628255374_" transform="translate(748.04,114.1621)">
				<path id="path6849_00000139981009385419304920000010629759886511036596_" class="st0" d="M-628.22-87.62
					c0.3-3.75,1.57-5.62,3.6-5.62c2.1,0,3.15,1.8,3.37,5.62H-628.22z M-624.03-79.16c-2.92,0-4.27-2.25-4.27-7.34h9.67
					c-0.07-5.02-2.1-7.64-5.92-7.64c-3.9,0-6.29,3.15-6.29,8.09s2.4,7.87,6.59,7.87c3.15,0,5.24-1.95,5.69-5.32h-1.27
					C-620.28-80.65-621.7-79.16-624.03-79.16"/>
			</g>
			<g id="g6851_00000170280317804760717430000014221165750445752238_" transform="translate(796.5996,76.4209)">
				<path id="path6853_00000170277586650058472360000015651088837882353086_" class="st0" d="M-664.45-40.32v-5.39h0.67
					c0.6,2.92,1.95,4.35,4.2,4.35c1.87,0,3.3-1.27,3.3-2.92c0-1.12-0.6-1.87-2.17-2.55l-1.2-0.52l-1.5-0.67
					c-2.4-1.12-3.07-2.02-3.07-3.9c0-2.55,2.02-4.27,4.87-4.27c1.27,0,2.17,0.3,3.3,1.05l0.52-1.35h0.6v5.02h-0.75
					c-0.3-2.62-1.35-3.82-3.37-3.82c-1.72,0-3.07,1.2-3.07,2.7c0,1.27,0.45,1.72,3.45,3l1.35,0.6c2.47,1.05,3.3,2.1,3.3,4.05
					c0,2.7-2.17,4.65-5.24,4.65c-1.5,0-2.62-0.37-3.9-1.35l-0.75,1.42h-0.52V-40.32z"/>
			</g>
			<g id="g6855_00000087403741514040695430000013988815513643433652_" transform="translate(908.6758,120.4082)">
				<path id="path6857_00000055688110248171216640000013559303555038660246_" class="st0" d="M-748.07-95.48
					c1.72,0,2.7,0.3,3.45,1.05c0.75,0.75,1.2,2.17,1.2,3.67c0,3.22-1.65,5.02-4.5,5.02h-1.2c-1.72,0-2.02-0.22-2.02-1.65v-8.09
					H-748.07z M-751.15-105.22h2.77c2.7,0,3.9,1.35,3.9,4.35c0,1.5-0.37,2.55-1.05,3.37c-0.75,0.82-1.57,1.05-3.37,1.05h-2.17v-8.77
					H-751.15z M-741.63-100.95c0-1.65-0.75-3.15-1.95-4.12c-1.12-0.82-2.4-1.2-4.5-1.2h-8.54v0.82c2.32,0.15,2.62,0.37,2.62,2.17
					v15.66c0,1.72-0.22,1.95-2.62,2.17v0.75h8.17c2.4,0,3.67-0.3,5.02-1.12c1.65-1.05,2.7-3,2.7-5.02c0-1.72-0.75-3.3-2.02-4.27
					c-0.67-0.52-1.42-0.82-2.55-1.05C-742.83-97.06-741.63-98.7-741.63-100.95"/>
			</g>
			<g id="g6859_00000088112107257679451750000000930130959500966284_" transform="translate(958.9365,114.1621)">
				<path id="path6861_00000121280197046832850950000007700856749526586758_" class="st0" d="M-785.55-87.62
					c0.3-3.75,1.57-5.62,3.6-5.62c2.1,0,3.15,1.8,3.37,5.62H-785.55z M-781.36-79.16c-2.92,0-4.27-2.25-4.27-7.34h9.67
					c-0.07-5.02-2.1-7.64-5.92-7.64c-3.9,0-6.29,3.15-6.29,8.09s2.4,7.87,6.59,7.87c3.15,0,5.24-1.95,5.69-5.32h-1.27
					C-777.68-80.65-779.11-79.16-781.36-79.16"/>
			</g>
			<g id="g6863_00000127015505616032201390000013032393328433666953_" transform="translate(1003.4248,134.4336)">
				<path id="path6865_00000081606419486718755950000009281620413500785544_" class="st0" d="M-818.81-113.01v-0.52
					c1.87-0.22,3-0.52,4.27-0.97c0.15,0.75,0.22,1.57,0.3,2.85c1.2-1.72,2.47-2.55,4.35-2.55c1.95,0,3.6,0.97,4.27,2.62
					c0.3,0.75,0.45,1.65,0.45,2.92v7.79c0,1.42,0.3,1.65,2.32,1.72v0.67c-1.72-0.15-2.4-0.22-3.52-0.22c-1.2,0-1.87,0-3.52,0.22
					v-0.75c1.72-0.07,2.17-0.37,2.17-1.65v-7.94c0-2.85-0.82-3.97-2.92-3.97c-2.17,0-3.37,1.42-3.37,4.05v7.87
					c0,1.27,0.45,1.65,2.1,1.65v0.67c-1.65-0.15-2.32-0.22-3.52-0.22c-1.12,0-1.8,0-3.52,0.22v-0.67c1.95-0.07,2.32-0.37,2.32-1.72
					v-9.96v-0.45c0-1.35-0.22-1.5-1.87-1.5C-818.44-113.01-818.59-113.01-818.81-113.01"/>
			</g>
			<g id="g6867_00000054988381690787318700000017508200636501037211_" transform="translate(1071.4912,77.9531)">
				<path id="path6869_00000022529340337991502820000011010154613661478528_" class="st0" d="M-869.59-42.2l8.77-14.46h-3.97
					c-2.1,0-2.62,0.45-3.82,3.37h-0.67l0.75-4.2h11.16l-8.77,14.46h3.82c2.17,0,3.07-0.9,4.05-3.82h0.67l-0.82,4.65L-869.59-42.2z"
					/>
			</g>
		</g>
	</g>
</g>
</svg>
