<?xml version="1.0" encoding="utf-8"?>
<!-- Generator: Adobe Illustrator 26.1.0, SVG Export Plug-In . SVG Version: 6.00 Build 0)  -->
<svg version="1.1" id="Layer_1" xmlns="http://www.w3.org/2000/svg" xmlns:xlink="http://www.w3.org/1999/xlink" x="0px" y="0px"
	 viewBox="0 0 234 50" style="enable-background:new 0 0 234 50;" xml:space="preserve">
<style type="text/css">
	.st0{fill-rule:evenodd;clip-rule:evenodd;fill:#020303;}
</style>
<g id="Layer_3_00000133529309433101425130000009542583225309206183_">
	<g id="layer1_00000044173658310704092300000017082736980677641109_">
		<path id="O_00000056408263047884482780000008869815531437811886_" class="st0" d="M47.73,31.76h22.2c1,0,1.84-0.84,1.84-1.77
			v-9.83c0-1-0.84-1.77-1.84-1.77h-22.2c-1,0-1.84,0.84-1.84,1.77v9.83C45.96,30.99,46.73,31.76,47.73,31.76L47.73,31.76z
			 M49.18,20.93h19.43c0.31,0,0.61,0.31,0.61,0.61v6.99c0,0.31-0.31,0.61-0.61,0.61H49.18c-0.31,0-0.61-0.31-0.61-0.61v-6.99
			C48.57,21.24,48.8,20.93,49.18,20.93L49.18,20.93z"/>
		<path id="P_00000001656931409046712610000016076403026438865823_" class="st0" d="M16.62,31.76h2.61v-3.23h21.27
			c1.08,0,1.92-0.84,1.92-1.92v-6.45c0-1.08-0.84-1.92-1.92-1.92H19.23h-0.69h-1.92v1.92v6.45V31.76L16.62,31.76z M19.23,26v-4.99
			h0.69h17.13h1.92c0.46,0,0.77,0.38,0.77,0.77v3.38c0,0.46-0.38,0.77-0.77,0.77h-1.92H19.92L19.23,26L19.23,26z"/>
		<path id="R_00000117641650862005796740000008198481313726645380_" class="st0" d="M75.14,31.76h2.61v-3.23h18.89l1.69,3.23h2.84
			l-1.69-3.23c0.84-0.23,1.46-0.92,1.46-1.84v-6.45c0-1.08-0.84-1.92-1.92-1.92H77.75h-0.69h-1.92v1.92v6.45V31.76L75.14,31.76z
			 M77.75,26v-4.99h0.69h17.13h1.92c0.46,0,0.84,0.38,0.84,0.77v3.38c0,0.46-0.38,0.77-0.84,0.77h-1.92H78.52L77.75,26L77.75,26z"/>
		<polygon id="H_00000061464432735518945580000002181267928275892389_" class="st0" points="162.85,31.76 165.46,31.76 
			165.46,26.38 184.74,26.38 184.74,31.76 187.35,31.76 187.35,18.4 184.74,18.4 184.74,23.77 165.46,23.77 165.46,18.4 
			162.85,18.4 		"/>
		<path id="C_00000088815275175752559270000011610104443368140195_" class="st0" d="M136.43,31.76h22.5v-2.61c-0.08,0-0.15,0-0.23,0
			h-20.89c-0.31,0-0.61-0.31-0.61-0.61v-6.99c0-0.31,0.31-0.61,0.61-0.61h20.89c0.08,0,0.15,0,0.23,0v-2.61h-22.5
			c-1,0-1.84,0.84-1.84,1.77v9.83C134.66,30.99,135.43,31.76,136.43,31.76L136.43,31.76z"/>
		<polygon id="E_00000106856126260204638780000006911910494260294277_" class="st0" points="191.42,31.76 192.88,31.76 
			194.03,31.76 217.38,31.76 217.38,29.22 194.03,29.22 194.03,26.38 217.38,26.38 217.38,23.77 194.03,23.77 194.03,20.93 
			217.38,20.93 217.38,18.4 194.03,18.4 192.88,18.4 191.42,18.4 		"/>
		<path id="S_00000106853603227717821540000015056668134043155646_" class="st0" d="M108.24,22.16v-0.61c0-0.31,0.31-0.61,0.61-0.61
			h20.89c0.08,0,0.15,0,0.23,0v-2.61h-22.5c-1,0-1.84,0.84-1.84,1.77v0.77v1.23v2.38c0,1,0.84,1.77,1.84,1.77h1.92l0,0
			c0.08,0,0.15,0,0.23,0h17.13c0.31,0,0.61,0.31,0.61,0.61v1v0.61c0,0.31-0.31,0.61-0.61,0.61h-20.89c-0.08,0-0.15,0-0.23,0v2.61
			h22.5c1,0,1.84-0.84,1.84-1.77v-0.77v-1.23v-2.38c0-1-0.84-1.84-1.84-1.84h-1.92l0,0c-0.08,0-0.15,0-0.23,0h-17.13
			c-0.31,0-0.61-0.31-0.61-0.61L108.24,22.16L108.24,22.16z"/>
	</g>
</g>
</svg>
